<svg xmlns="http://www.w3.org/2000/svg" xmlns:xlink="http://www.w3.org/1999/xlink" viewBox="0,0,256,256" width="64px" height="64px" fill-rule="nonzero"><defs><linearGradient x1="50" y1="43.667" x2="50" y2="52.847" gradientUnits="userSpaceOnUse" id="color-1"><stop offset="0" stop-color="#ff9f00"></stop><stop offset="1" stop-color="#c700ff"></stop></linearGradient><linearGradient x1="32" y1="7.833" x2="32" y2="55.964" gradientUnits="userSpaceOnUse" id="color-2"><stop offset="0" stop-color="#ff9f00"></stop><stop offset="1" stop-color="#c700ff"></stop></linearGradient><linearGradient x1="32" y1="7.833" x2="32" y2="55.964" gradientUnits="userSpaceOnUse" id="color-3"><stop offset="0" stop-color="#ff9f00"></stop><stop offset="1" stop-color="#c700ff"></stop></linearGradient></defs><g fill="none" fill-rule="nonzero" stroke="none" stroke-width="1" stroke-linecap="butt" stroke-linejoin="miter" stroke-miterlimit="10" stroke-dasharray="" stroke-dashoffset="0" font-family="none" font-weight="none" font-size="none" text-anchor="none" style="mix-blend-mode: normal"><g transform="scale(4,4)"><path d="M46,52h6c1.105,0 2,-0.895 2,-2v-6z" fill="url(#color-1)"></path><path d="M53,19h-7v-1c0,-1.103 -0.897,-2 -2,-2v-3c0,-2.757 -2.243,-5 -5,-5h-14c-2.757,0 -5,2.243 -5,5v3c-1.103,0 -2,0.897 -2,2v1h-7c-2.757,0 -5,2.243 -5,5v27c0,2.757 2.243,5 5,5h42c2.757,0 5,-2.243 5,-5v-27c0,-2.757 -2.243,-5 -5,-5zM38,19v-1h6v1zM26,16v-2h12v2c-1.103,0 -2,0.897 -2,2v1h-8v-1c0,-1.103 -0.897,-2 -2,-2zM22,13c0,-1.654 1.346,-3 3,-3h14c1.654,0 3,1.346 3,3v3h-2v-2c0,-1.103 -0.897,-2 -2,-2h-12c-1.103,0 -2,0.897 -2,2v2h-2zM20,18h6v1h-6zM11,21h42c1.654,0 3,1.346 3,3v0.764l-4.79,9.579c-0.511,1.022 -1.538,1.657 -2.681,1.657h-6.529v-3c0,-1.103 -0.897,-2 -2,-2h-2c-1.103,0 -2,0.897 -2,2v3h-8v-3c0,-1.103 -0.897,-2 -2,-2h-2c-1.103,0 -2,0.897 -2,2v3h-6.529c-1.143,0 -2.17,-0.635 -2.681,-1.657l-4.79,-9.579v-0.764c0,-1.654 1.346,-3 3,-3zM40,33v7c0,0.552 -0.448,1 -1,1c-0.552,0 -1,-0.448 -1,-1v-7zM26,33v7c0,0.552 -0.448,1 -1,1c-0.552,0 -1,-0.448 -1,-1v-7zM53,54h-42c-1.654,0 -3,-1.346 -3,-3v-21.764l3.001,6.001c0.852,1.704 2.564,2.763 4.47,2.763h6.529v2c0,1.654 1.346,3 3,3c1.654,0 3,-1.346 3,-3v-2h8v2c0,1.654 1.346,3 3,3c1.654,0 3,-1.346 3,-3v-2h6.529c1.905,0 3.618,-1.059 4.47,-2.763l3.001,-6.001v21.764c0,1.654 -1.346,3 -3,3z" fill="url(#color-2)"></path><path d="M26,23h12v2h-12z" fill="url(#color-3)"></path></g></g></svg>